<?xml version="1.0" encoding="UTF-8"?>
<svg width="940" height="788" version="1.1" viewBox="0 0 940 788" xml:space="preserve" xmlns="http://www.w3.org/2000/svg">
<desc>Created with Fabric.js 3.5.0</desc>

<rect width="100%" height="100%" fill="none"/>
<g transform="matrix(.658 0 0 .658 470 394)">
<g vector-effect="non-scaling-stroke" style="">
		<g id="textblock" transform="matrix(2.5286 0 0 2.5286 .4697 186.98)">
<path transform="translate(-197.76 -80.736)" d="m394.59 34.632c-1.859-16.76-7.159-21.42-7.159-21.42-16.27-17.263-36.575-13.542-54.816-11.062-32.205 0.101-64.28 3.788-96.411 5.766-67.441 0.302-135.46-4.659-202.56 7.576-6.304 3.754-40.183 0.737-32.522 21.286 2.008 8.548 9.335 18.034 9.111 25.878 1.004 1.375 2.399-1.776 2.994 0.201 2.083 5.33 5.485 2.816 8.275 5.967-3.887 8.414-1.098 15.42 1.561 22.761-4.685 1.911-10.691 1.006-13.387 7.341-0.279 4.593-1.785 3.721-3.44 3.52-1.209-0.134-3.645 0.369-3.236 1.81 1.395 4.928-4.593 7.777-0.837 12.604-2.584 5.229 1.786 9.755 1.191 15.42-0.075 1.14 0.334 2.112 0.985 2.38 2.882 1.441-1.32 4.257-0.874 7.307 29.565 20.851 61.64 6.437 91.93 16.024 7.865-6.705 1.952 2.38 5.095 0.972 2.454-1.643 4.239 5.162 7.01 1.307 0.428-1.106-0.223-3.721 1.301-3.218 0.8 0.268 1.507 0.201 1.618-1.341 0.168-2.313-1.301-0.871-1.692-2.078 4.221-6.101 3.18 8.414 7.14 7.81-0.186-1.776-1.338-4.324 1.023-3.989 2.343-2.547 2.417-4.659 4.5 1.073 0.074 1.24 0.446 2.112 1.041 2.715 6.508-6.235 12.979 2.213 19.803-0.603 4.184-3.084 8.2 1.676 12.439 0.503 1.488-0.939 2.994-2.615 4.426 0.201 17.534 0.603 36.221-1.911 52.845 0.1 44.421-3.754 91.892 1.542 138.73-3.419 11.045-1.911 22.518-4.626 33.284-6.805 0 0 8.721-5.966 8.721-32.783s1.859-23.465 2.138-44.818 1.581-22.225-0.279-38.986z" fill="#fff" stroke-linecap="round" style="font-file-url:none;is-custom-font:none"/>
</g>
		<g transform="matrix(5.8835 0 0 5.8835 .5002 186.98)">
<path transform="translate(-66.52 18.225)" d="m9.45 0.35v0q2.3-1.55 4.5-3.98 2.2-2.42 4-5.25 1.8-2.82 3.05-5.87t1.7-5.85v0q0-0.6-0.65-0.8v0q-0.7 0-1.92 1.22-1.23 1.23-2.7 3.13-1.48 1.9-3 4.25-1.53 2.35-2.78 4.67-1.25 2.33-2.12 4.35-0.88 2.03-0.98 3.28v0q-0.5 0-0.85-1v0q-0.1-0.25-0.35-0.52-0.25-0.28-0.8-0.68v0q-0.25-0.2-0.5-0.48-0.25-0.27-0.35-0.47v0q-0.2-0.4-0.2-1.3v0q0-2.95 0.75-6.65t1.97-7.55q1.23-3.85 2.88-7.58 1.65-3.72 3.43-6.82 1.77-3.1 3.57-5.25t3.4-2.85v0q0.5 0.15 1.2 0.5t1.4 0.8 1.33 0.9q0.62 0.45 0.92 0.8v0q-5.5 4.45-9.53 11.42-4.02 6.98-6.57 16.48v0q1.4-2.6 3.15-5.03 1.75-2.42 3.48-4.27 1.72-1.85 3.3-2.95 1.57-1.1 2.62-1.1v0q0.8 0.2 1.55 0.7t1.35 1.22q0.6 0.73 1 1.55 0.4 0.83 0.5 1.73v0q-0.05 2.1-0.72 4.47-0.68 2.38-1.8 4.68-1.13 2.3-2.55 4.4-1.43 2.1-3 3.67-1.58 1.58-3.15 2.53-1.58 0.95-2.98 0.95v0q-0.6 0-1.22-0.12-0.63-0.13-1.15-0.35-0.53-0.23-0.85-0.48-0.33-0.25-0.33-0.5zm20.75-10.15v0q0-3.5 0.82-6.88 0.83-3.37 2.33-6.4 1.5-3.02 3.57-5.55 2.08-2.52 4.55-4.37 2.48-1.85 5.28-2.88 2.8-1.02 5.75-1.02v0q3.45 0 5.37 1.45 1.93 1.45 1.93 4.05v0q0 1-0.28 2.05-0.27 1.05-0.8 2.07-0.52 1.03-1.22 1.98t-1.55 1.65v0q-1.3-0.2-2.25-1.18-0.95-0.97-1.2-2.27v0q1.75-1.45 2.77-3.03 1.03-1.57 1.03-2.87v0q0-2.2-2.75-2.2v0q-1.15 0-2.38 0.47-1.22 0.48-2.47 1.33t-2.43 2.05q-1.17 1.2-2.17 2.65v0q-6.95 10-6.95 20.45v0q0 3.7 1.15 5.95t3.05 2.65v0q2.15-0.5 5.45-2.75t7.2-5.85v0q0.5 0.5 0.6 1.05v0q-1.45 1.9-3 3.65t-3.08 3.2q-1.52 1.45-3 2.55-1.47 1.1-2.72 1.7v0q-6.2-0.1-9.4-3.55t-3.2-10.15zm27.64 6.6v0q0-2.2 1.06-6.18 1.05-3.97 2.94-9.27v0q3.11-8.45 5.83-14.08 2.73-5.62 5.33-8.77v0q0.59 0.1 1.47 0.5 0.87 0.4 1.73 0.87 0.85 0.48 1.52 0.98 0.68 0.5 0.87 0.8v0q-3.89 4.6-6.84 9.9t-5.41 12.15v0q-2.09 5.9-3.19 10.62-1.1 4.73-1.1 7.88v0q0 0.85 0 1.05t0.04 0.4v0q-0.69-0.1-1.19-0.35t-0.65-0.6v0q-0.1-0.25-0.55-0.72-0.45-0.48-0.8-0.73v0q-0.45-0.3-0.75-1.58-0.31-1.27-0.31-2.87zm28.9-17v0q0.5 0 1.18 0.17 0.67 0.18 1.22 0.45 0.55 0.28 0.93 0.58 0.37 0.3 0.37 0.55v0q-1 2.1-1.85 4.22-0.85 2.13-1.45 4.08t-0.92 3.65q-0.33 1.7-0.33 2.95v0q0 1.4 0.3 2.32 0.3 0.93 1 1.33v0q-0.6 0.4-1.55 0.65t-1.7 0.25v0q-2.7 0-2.7-3.7v0q0-2.85 1.9-7.8v0q-1 2.3-2.3 4.32-1.3 2.03-2.65 3.58t-2.72 2.52q-1.38 0.98-2.53 1.18v0q-1.85-0.1-3-1.78-1.15-1.67-1.15-4.27v0q0-2.8 1.2-5.9t3.08-5.75q1.87-2.65 4.07-4.43 2.2-1.77 4.25-1.87v0q0.5 0.15 1.13 0.6 0.62 0.45 1.2 1.05 0.57 0.6 0.97 1.22 0.4 0.63 0.45 1.08v0q-2 0.3-4.12 1.95-2.13 1.65-3.85 3.97-1.73 2.33-2.83 4.98t-1.1 4.95v0q0 0.95 0.7 1.2v0q1.45-0.3 3.35-2.48 1.9-2.17 4.6-6.72v0q0.5-0.9 1.13-2 0.62-1.1 1.27-2.3t1.28-2.42q0.62-1.23 1.17-2.38zm23.5 0.3v0q-0.05 0.95-0.32 1.97-0.28 1.03-0.68 1.86-0.4 0.82-0.85 1.37t-0.85 0.55v0q-0.55-0.05-0.65-0.75v0q0-0.15 0.13-0.48 0.12-0.32 0.27-0.72t0.27-0.8q0.13-0.4 0.13-0.7v0q0-0.7-0.32-1.18-0.33-0.47-0.88-0.47v0q-2 0-3.05 2.5t-1.05 7.35v0q0 0.5 0.05 0.6v0q1.05-0.05 1.87-0.08 0.83-0.02 1.63-0.02v0q0.05 0.1 0.05 0.4v0q0 0.45-0.2 0.65v0q-1.15 0.25-1.82 0.42-0.68 0.18-1.03 0.33t-0.42 0.32q-0.08 0.18-0.08 0.48v0q0 0.4 0.03 0.8 0.02 0.4 0.02 1v0q0 4.2-2.27 6.75-2.28 2.55-6.33 2.95v0q-0.7-0.05-1.45-0.4t-1.42-0.9q-0.68-0.55-1.18-1.22-0.5-0.68-0.7-1.38v0q0-1.9 0.8-3.63 0.8-1.72 2.17-3.05 1.38-1.32 3.25-2.15 1.88-0.82 4.08-0.97v0q0-1.25-0.25-2.45t-0.52-2.33q-0.28-1.12-0.53-2.2-0.25-1.07-0.25-2.12v0q0-1.35 0.55-2.68 0.55-1.32 1.45-2.45 0.9-1.12 2.1-1.92t2.5-1.1v0q0.55 0.15 1.48 0.87 0.92 0.73 1.82 1.63t1.6 1.82q0.7 0.93 0.85 1.53zm-16.5 22.8v0q1.2-0.5 2.28-1.45 1.07-0.95 1.87-2.15t1.28-2.55q0.47-1.35 0.47-2.65v0q-1 0.15-2.2 0.92-1.2 0.78-2.25 1.85-1.05 1.08-1.75 2.23t-0.7 2v0q0 1.1 1 1.8zm33.8-22.8v0q-0.05 0.95-0.33 1.97-0.27 1.03-0.67 1.86-0.4 0.82-0.85 1.37t-0.85 0.55v0q-0.55-0.05-0.65-0.75v0q0-0.15 0.12-0.48 0.13-0.32 0.28-0.72t0.27-0.8q0.13-0.4 0.13-0.7v0q0-0.7-0.33-1.18-0.32-0.47-0.87-0.47v0q-2 0-3.05 2.5t-1.05 7.35v0q0 0.5 0.05 0.6v0q1.05-0.05 1.87-0.08 0.83-0.02 1.63-0.02v0q0.05 0.1 0.05 0.4v0q0 0.45-0.2 0.65v0q-1.15 0.25-1.83 0.42-0.67 0.18-1.02 0.33t-0.43 0.32q-0.07 0.18-0.07 0.48v0q0 0.4 0.02 0.8 0.03 0.4 0.03 1v0q0 4.2-2.28 6.75-2.27 2.55-6.32 2.95v0q-0.7-0.05-1.45-0.4t-1.43-0.9q-0.67-0.55-1.17-1.22-0.5-0.68-0.7-1.38v0q0-1.9 0.8-3.63 0.8-1.72 2.17-3.05 1.38-1.32 3.25-2.15 1.88-0.82 4.08-0.97v0q0-1.25-0.25-2.45t-0.53-2.33q-0.27-1.12-0.52-2.2-0.25-1.07-0.25-2.12v0q0-1.35 0.55-2.68 0.55-1.32 1.45-2.45 0.9-1.12 2.1-1.92t2.5-1.1v0q0.55 0.15 1.47 0.87 0.93 0.73 1.83 1.63t1.6 1.82q0.7 0.93 0.85 1.53zm-16.5 22.8v0q1.2-0.5 2.27-1.45 1.08-0.95 1.88-2.15t1.27-2.55q0.48-1.35 0.48-2.65v0q-1 0.15-2.2 0.92-1.2 0.78-2.25 1.85-1.05 1.08-1.75 2.23t-0.7 2v0q0 1.1 1 1.8z" fill="#97978d" stroke-linecap="round" style="font-file-url:none;is-custom-font:none"/>
</g><g fill="#ccc">
		<g transform="matrix(6.8655 0 0 6.8655 249.35 -236.88)">
<path transform="translate(-86.212 -49.975)" d="m94.3 48.2-12.5-12.5c-1-1-2.6-1-3.5 0-1 1-1 2.6 0 3.5l1.7 1.8 9 9-10.8 10.8c-1 1-1 2.6 0 3.5 0.5 0.5 1.1 0.7 1.8 0.7s1.3-0.2 1.8-0.7l12.5-12.5c0.9-1 0.9-2.6 0-3.6z" fill="#ccc" stroke-linecap="round" style="font-file-url:none;is-custom-font:none"/>
</g>
		<g transform="matrix(6.8655 0 0 6.8655 -248.15 -236.88)">
<path transform="translate(-13.75 -49.975)" d="m21.8 39.3c1-1 1-2.6 0-3.5-1-1-2.6-1-3.5 0l-12.6 12.4c-1 1-1 2.6 0 3.5l12.5 12.5c0.5 0.5 1.1 0.7 1.8 0.7s1.3-0.2 1.8-0.7c1-1 1-2.6 0-3.5l-1.8-1.7-9-9 9-9 1.8-1.7z" fill="#ccc" stroke-linecap="round" style="font-file-url:none;is-custom-font:none"/>
</g>
		<g transform="matrix(6.8655 0 0 6.8655 .3845 -236.37)">
<path transform="translate(-49.95 -50.05)" d="m72.4 29.3c0-0.1 0-0.2-0.1-0.2 0-0.1-0.1-0.2-0.1-0.2 0-0.1-0.1-0.1-0.1-0.2-0.2-0.3-0.4-0.5-0.7-0.7-0.1 0-0.1-0.1-0.2-0.1s-0.2-0.1-0.2-0.1c-0.1 0-0.2-0.1-0.3-0.1s-0.1 0-0.2-0.1h-0.5-30c-0.7 0-1.3 0.3-1.8 0.7l-10 10c-0.1 0.1-0.2 0.2-0.3 0.4 0 0.1-0.1 0.1-0.1 0.2s-0.1 0.2-0.1 0.2c0 0.1-0.1 0.2-0.1 0.2 0 0.1 0 0.1-0.1 0.2v0.5 30c0 1.4 1.1 2.5 2.5 2.5h30 0.5c0.1 0 0.1 0 0.2-0.1 0.1 0 0.2 0 0.2-0.1 0.1 0 0.2-0.1 0.2-0.1 0.1 0 0.1-0.1 0.2-0.1 0.1-0.1 0.3-0.2 0.4-0.3l10-10c0.5-0.5 0.7-1.1 0.7-1.8v-30-0.5-0.2zm-14.9 38.2h-25v-25h25v25zm1.5-30h-23l5-5h23l-5 5zm8.5 21.5-5 5v-23l5-5v23z" fill="#ccc" stroke-linecap="round" style="font-file-url:none;is-custom-font:none"/>
</g>
		</g><g id="tight-bounds" transform="matrix(3.1619 0 0 3.1619 .4646 .3108)">
<rect x="-158.15" y="-123.6" width="316.3" height="247.2" rx="0" ry="0" fill="none" style="font-file-url:none;is-custom-font:none"/>
</g>
</g>
</g>
<g transform="translate(469.5 642.46)" filter="url(#SVGID_171)">
<filter id="SVGID_171" x="-.032397" y="-.21132" width="1.0857" height="1.5603">
	<feGaussianBlur in="SourceAlpha" stdDeviation="5"/>
	<feOffset dx="10" dy="10" result="oBlur"/>
	<feFlood flood-color="rgb(0,0,0)"/>
	<feComposite in2="oBlur" operator="in"/>
	<feMerge>
		<feMergeNode/>
		<feMergeNode in="SourceGraphic"/>
	</feMerge>
</filter><g fill="#fff" font-family="Oleo Script" font-size="90" font-weight="bold" stroke="#595959" stroke-width="7">
		
<path d="m-206.69 16.12q0 5.58-5.17 9.41-5.17 3.82-12.11 3.82-6.93 0-11.38-2.34-4.46-2.34-4.46-4.45 0-2.12 2.75-5.4 2.75-3.29 5.62-3.83 4.14 2.25 7.47 9.99 2.61 0 2.61-1.71 0-1.26-0.72-2.34t-1.08-1.71-1.26-1.75q-0.89-1.13-1.35-1.67-2.25-2.7-4.04-4.95-4.33-5.4-4.33-9.49 0-4.1 2.61-6.71 4.5-4.59 13.23-4.59 5.49 0 8.74 2.12 3.23 2.11 3.23 6.3 0 4.18-4.95 9.58 4.59 5.31 4.59 9.72zm-6.03-16.51q1.08-1.67 1.08-3.02t-1.17-2.07-2.78-0.72q-1.63 0-2.48 0.77-0.86 0.76-0.86 2.02t3.87 5.58q1.26-0.9 2.34-2.56z" style="font-file-url:none;is-custom-font:none;white-space:pre" xml:space="preserve"/><path d="m-169.88-3.59-7.73-0.63q-3.6 16.11-3.92 18.72-0.31 2.61-0.31 4.28 0 1.66 1.08 1.66 1.26 0 4.76-1.62l2.17 4.32q-2.88 2.61-7.3 4.41-4.4 1.8-8.5 1.8-4.09 0-6.53-2.11-2.42-2.12-2.42-5.99t2.25-12.42 2.97-12.69q-2.16 0.18-6.39 0.63-0.36-1.89-0.36-3.55 0-1.67 0.45-3.74h7.19q0.09-1.17 0.09-7.83l-0.17-3.69q8.73-2.88 16.64-2.88 0.64 1.44 0.64 5 0 3.55-1.17 9.4h8.1q0 3.69-1.54 6.93z" style="font-file-url:none;is-custom-font:none;white-space:pre" xml:space="preserve"/><path d="m-124.51-8.18q-1.9 5.85-3.24 13.91-1.35 8.05-1.35 11.25 0 3.19 0.98 3.19l4.51-1.26 1.62 4.5q-2.89 2.25-7.34 4.1-4.45 1.84-7.87 1.84-5.86 0-7.38-5.04-7.11 5.04-12.56 5.04-5.44 0-8.41-3.96t-2.97-11.34q0-10.17 5.22-17.91t13.77-7.74q4.68 0 9.53 2.61 0.73-1.62 1.18-2.34 6.48 0 14.31 3.15zm-27.09 21.11q0 4.54 0.63 5.71t2.34 1.17 3.32-1.35q0.37-10.44 3.43-21.87-1.35-0.81-3.11-0.81t-3.15 1.98-2.11 4.95q-1.35 5.67-1.35 10.22z" style="font-file-url:none;is-custom-font:none;white-space:pre" xml:space="preserve"/><path d="m-88.06-3.59-7.75-0.63q-3.6 16.11-3.91 18.72t-0.31 4.28q0 1.66 1.08 1.66 1.25 0 4.76-1.62l2.16 4.32q-2.88 2.61-7.28 4.41-4.41 1.8-8.51 1.8t-6.52-2.11q-2.44-2.12-2.44-5.99t2.25-12.42 2.97-12.69q-2.16 0.18-6.39 0.63-0.36-1.89-0.36-3.55 0-1.67 0.45-3.74h7.2q0.1-1.17 0.1-7.83l-0.19-3.69q8.73-2.88 16.66-2.88 0.62 1.44 0.62 5 0 3.55-1.17 9.4h8.11q0 3.69-1.53 6.93z" style="font-file-url:none;is-custom-font:none;white-space:pre" xml:space="preserve"/><path d="m-85.45 20.98q0-3.78 2.38-12.42t2.38-10.62-3.24-5.76l0.18-1.35q8.19-1.8 19.17-1.8 0.72 1.53 0.72 4.86t-2.47 12.6q-2.48 9.27-2.48 10.98 0 2.34 2.25 2.34 1.53 0 3.87-1.17 0.27-1.44 1.62-7.56 3.15-13.59 3.15-20.34 4.14-1.8 14.13-1.8h2.43q0 4.05-2.38 15.84-2.39 11.79-2.43 13.59-0.05 1.8 0.76 1.8l4.41-1.17 1.62 4.5q-2.61 2.07-7.56 3.96t-8.73 1.89q-5.58 0-6.93-4.5-7.46 4.5-14.31 4.5-8.54 0-8.54-8.37z" style="font-file-url:none;is-custom-font:none;white-space:pre" xml:space="preserve"/><path d="m-4.91 16.12q0 5.58-5.17 9.41-5.17 3.82-12.1 3.82t-11.39-2.34q-4.45-2.34-4.45-4.45 0-2.12 2.74-5.4 2.75-3.29 5.62-3.83 4.14 2.25 7.48 9.99 2.61 0 2.61-1.71 0-1.26-0.72-2.34-0.73-1.08-1.09-1.71-0.35-0.63-1.25-1.75-0.9-1.13-1.35-1.67-2.25-2.7-4.05-4.95-4.32-5.4-4.32-9.49 0-4.1 2.61-6.71 4.5-4.59 13.22-4.59 5.5 0 8.73 2.12 3.24 2.11 3.24 6.3 0 4.18-4.95 9.58 4.59 5.31 4.59 9.72zm-6.02-16.51q1.07-1.67 1.07-3.02t-1.16-2.07q-1.18-0.72-2.79-0.72-1.62 0-2.48 0.77-0.85 0.76-0.85 2.02t3.87 5.58q1.25-0.9 2.34-2.56z" style="font-file-url:none;is-custom-font:none;white-space:pre" xml:space="preserve"/><path d="m18.05 48.43q-0.72-1.17-0.72-4.95t3.46-20.52q3.47-16.74 3.47-20.97t-0.81-6.43q-0.81-2.21-1.62-2.84l-0.81-0.63 0.18-1.35q5.39-1.71 18.27-1.71 0.72 1.35 1.17 3.51 5.75-4.14 10.88-4.14 5.14 0 8.42 3.92 3.29 3.91 3.29 13.27t-4.91 16.56-14.35 7.2q-4.14 0-8.1-1.62-2.07 10.17-2.07 17.91-6.48 2.34-15.75 2.79zm21.78-26.64q2.42 0 4.14-3.6 3.05-6.3 3.05-15.3 0-5.31-2.61-5.31-1.35 0-3.6 0.99-0.53 7.56-3.59 22.77 1.53 0.45 2.61 0.45z" style="font-file-url:none;is-custom-font:none;white-space:pre" xml:space="preserve"/><path d="m112.72-8.18q-1.88 5.85-3.24 13.91-1.34 8.05-1.34 11.25 0 3.19 0.99 3.19l4.5-1.26 1.62 4.5q-2.88 2.25-7.34 4.1-4.45 1.84-7.88 1.84-5.84 0-7.37-5.04-7.11 5.04-12.56 5.04-5.44 0-8.41-3.96t-2.97-11.34q0-10.17 5.22-17.91t13.76-7.74q4.69 0 9.55 2.61 0.72-1.62 1.17-2.34 6.48 0 14.3 3.15zm-27.08 21.11q0 4.54 0.63 5.71t2.34 1.17q1.7 0 3.33-1.35 0.36-10.44 3.42-21.87-1.36-0.81-3.11-0.81t-3.15 1.98-2.12 4.95q-1.34 5.67-1.34 10.22z" style="font-file-url:none;is-custom-font:none;white-space:pre" xml:space="preserve"/><path d="m140.08 29.08 0.9-4.68q-6.29 3.42-11.2 3.42-4.9 0-8.19-3.91-3.29-3.92-3.29-11.66 0-10.35 5.63-17.1t13.45-6.75q3.78 0 8.56 2.07 5.57-1.71 12.69-1.71h1.53q0.44 0.9 0.44 4.01 0 3.1-1.12 12.19-1.13 9.09-2.48 15.21-2.87 13.05-8.95 20.66-6.08 7.6-15.26 7.6-4.5 0-7.33-1.98t-2.83-5.04 1.48-5.08q1.48-2.03 4.27-3.38 4.78-2.34 11.7-3.87zm1.44-33.39q-3.14 0-4.81 5.4t-1.67 11.7 2.97 6.3q1.26 0 3.69-1.26 0.72-7.29 2.34-21.6-1.35-0.54-2.52-0.54zm-10.26 46.08q1.71 0 3.92-1.71 2.2-1.71 3.64-5.58-9.81 1.71-9.81 5.22 0.18 2.07 2.25 2.07z" style="font-file-url:none;is-custom-font:none;white-space:pre" xml:space="preserve"/><path d="m165.02 11.98q0-11.16 6.79-17.37t16.78-6.21q6.94 0 11.12 3.02 4.19 3.01 4.19 8.05 0 3.69-2.25 6.57t-5.49 4.41q-6.85 3.06-11.88 3.69l-2.25 0.27q0.99 5.94 5.94 5.94 2.16 0 4.77-0.94 2.6-0.95 4.14-1.94l1.53-0.9 2.87 3.87t-0.98 0.99q-0.55 0.54-2.57 2.12-2.02 1.57-4.23 2.74-2.2 1.17-5.62 2.12-3.42 0.94-6.85 0.94-7.65 0-11.83-4.45-4.18-4.46-4.18-12.92zm16.64-3.51q2.62-0.36 5.22-4.27 2.62-3.92 2.62-6.57 0-2.66-1.53-2.66-2.25 0-4.15 3.51-1.88 3.51-2.16 9.99z" style="font-file-url:none;is-custom-font:none;white-space:pre" xml:space="preserve"/><path d="m238.28 16.12q0 5.58-5.18 9.41-5.17 3.82-12.1 3.82-6.94 0-11.39-2.34t-4.45-4.45q0-2.12 2.74-5.4 2.75-3.29 5.63-3.83 4.13 2.25 7.47 9.99 2.6 0 2.6-1.71 0-1.26-0.72-2.34t-1.07-1.71q-0.37-0.63-1.27-1.75-0.89-1.13-1.35-1.67-2.25-2.7-4.04-4.95-4.33-5.4-4.33-9.49 0-4.1 2.62-6.71 4.5-4.59 13.22-4.59 5.5 0 8.74 2.12 3.23 2.11 3.23 6.3 0 4.18-4.94 9.58 4.59 5.31 4.59 9.72zm-6.03-16.51q1.07-1.67 1.07-3.02t-1.16-2.07q-1.17-0.72-2.79-0.72t-2.48 0.77q-0.86 0.76-0.86 2.02t3.88 5.58q1.25-0.9 2.34-2.56z" style="font-file-url:none;is-custom-font:none;white-space:pre" xml:space="preserve"/></g></g>
</svg>
