<?xml version="1.0" encoding="UTF-8"?>
<svg width="940" height="788" version="1.1" viewBox="0 0 940 788" xml:space="preserve" xmlns="http://www.w3.org/2000/svg">
<desc>Created with Fabric.js 3.5.0</desc>

<rect width="100%" height="100%" fill="none"/>
<g transform="matrix(.658 0 0 .658 470 394)">
<g vector-effect="non-scaling-stroke" style="">
		<g id="textblock" transform="matrix(2.5286 0 0 2.5286 .4697 186.98)">
<path transform="translate(-197.76 -80.736)" d="m394.59 34.632c-1.859-16.76-7.159-21.42-7.159-21.42-16.27-17.263-36.575-13.542-54.816-11.062-32.205 0.101-64.28 3.788-96.411 5.766-67.441 0.302-135.46-4.659-202.56 7.576-6.304 3.754-40.183 0.737-32.522 21.286 2.008 8.548 9.335 18.034 9.111 25.878 1.004 1.375 2.399-1.776 2.994 0.201 2.083 5.33 5.485 2.816 8.275 5.967-3.887 8.414-1.098 15.42 1.561 22.761-4.685 1.911-10.691 1.006-13.387 7.341-0.279 4.593-1.785 3.721-3.44 3.52-1.209-0.134-3.645 0.369-3.236 1.81 1.395 4.928-4.593 7.777-0.837 12.604-2.584 5.229 1.786 9.755 1.191 15.42-0.075 1.14 0.334 2.112 0.985 2.38 2.882 1.441-1.32 4.257-0.874 7.307 29.565 20.851 61.64 6.437 91.93 16.024 7.865-6.705 1.952 2.38 5.095 0.972 2.454-1.643 4.239 5.162 7.01 1.307 0.428-1.106-0.223-3.721 1.301-3.218 0.8 0.268 1.507 0.201 1.618-1.341 0.168-2.313-1.301-0.871-1.692-2.078 4.221-6.101 3.18 8.414 7.14 7.81-0.186-1.776-1.338-4.324 1.023-3.989 2.343-2.547 2.417-4.659 4.5 1.073 0.074 1.24 0.446 2.112 1.041 2.715 6.508-6.235 12.979 2.213 19.803-0.603 4.184-3.084 8.2 1.676 12.439 0.503 1.488-0.939 2.994-2.615 4.426 0.201 17.534 0.603 36.221-1.911 52.845 0.1 44.421-3.754 91.892 1.542 138.73-3.419 11.045-1.911 22.518-4.626 33.284-6.805 0 0 8.721-5.966 8.721-32.783s1.859-23.465 2.138-44.818 1.581-22.225-0.279-38.986z" fill="#fff" stroke-linecap="round" style="font-file-url:none;is-custom-font:none"/>
</g>
		<g transform="matrix(5.8835 0 0 5.8835 .5002 186.98)">
<path transform="translate(-66.52 18.225)" d="m9.45 0.35v0q2.3-1.55 4.5-3.98 2.2-2.42 4-5.25 1.8-2.82 3.05-5.87t1.7-5.85v0q0-0.6-0.65-0.8v0q-0.7 0-1.92 1.22-1.23 1.23-2.7 3.13-1.48 1.9-3 4.25-1.53 2.35-2.78 4.67-1.25 2.33-2.12 4.35-0.88 2.03-0.98 3.28v0q-0.5 0-0.85-1v0q-0.1-0.25-0.35-0.52-0.25-0.28-0.8-0.68v0q-0.25-0.2-0.5-0.48-0.25-0.27-0.35-0.47v0q-0.2-0.4-0.2-1.3v0q0-2.95 0.75-6.65t1.97-7.55q1.23-3.85 2.88-7.58 1.65-3.72 3.43-6.82 1.77-3.1 3.57-5.25t3.4-2.85v0q0.5 0.15 1.2 0.5t1.4 0.8 1.33 0.9q0.62 0.45 0.92 0.8v0q-5.5 4.45-9.53 11.42-4.02 6.98-6.57 16.48v0q1.4-2.6 3.15-5.03 1.75-2.42 3.48-4.27 1.72-1.85 3.3-2.95 1.57-1.1 2.62-1.1v0q0.8 0.2 1.55 0.7t1.35 1.22q0.6 0.73 1 1.55 0.4 0.83 0.5 1.73v0q-0.05 2.1-0.72 4.47-0.68 2.38-1.8 4.68-1.13 2.3-2.55 4.4-1.43 2.1-3 3.67-1.58 1.58-3.15 2.53-1.58 0.95-2.98 0.95v0q-0.6 0-1.22-0.12-0.63-0.13-1.15-0.35-0.53-0.23-0.85-0.48-0.33-0.25-0.33-0.5zm20.75-10.15v0q0-3.5 0.82-6.88 0.83-3.37 2.33-6.4 1.5-3.02 3.57-5.55 2.08-2.52 4.55-4.37 2.48-1.85 5.28-2.88 2.8-1.02 5.75-1.02v0q3.45 0 5.37 1.45 1.93 1.45 1.93 4.05v0q0 1-0.28 2.05-0.27 1.05-0.8 2.07-0.52 1.03-1.22 1.98t-1.55 1.65v0q-1.3-0.2-2.25-1.18-0.95-0.97-1.2-2.27v0q1.75-1.45 2.77-3.03 1.03-1.57 1.03-2.87v0q0-2.2-2.75-2.2v0q-1.15 0-2.38 0.47-1.22 0.48-2.47 1.33t-2.43 2.05q-1.17 1.2-2.17 2.65v0q-6.95 10-6.95 20.45v0q0 3.7 1.15 5.95t3.05 2.65v0q2.15-0.5 5.45-2.75t7.2-5.85v0q0.5 0.5 0.6 1.05v0q-1.45 1.9-3 3.65t-3.08 3.2q-1.52 1.45-3 2.55-1.47 1.1-2.72 1.7v0q-6.2-0.1-9.4-3.55t-3.2-10.15zm27.64 6.6v0q0-2.2 1.06-6.18 1.05-3.97 2.94-9.27v0q3.11-8.45 5.83-14.08 2.73-5.62 5.33-8.77v0q0.59 0.1 1.47 0.5 0.87 0.4 1.73 0.87 0.85 0.48 1.52 0.98 0.68 0.5 0.87 0.8v0q-3.89 4.6-6.84 9.9t-5.41 12.15v0q-2.09 5.9-3.19 10.62-1.1 4.73-1.1 7.88v0q0 0.85 0 1.05t0.04 0.4v0q-0.69-0.1-1.19-0.35t-0.65-0.6v0q-0.1-0.25-0.55-0.72-0.45-0.48-0.8-0.73v0q-0.45-0.3-0.75-1.58-0.31-1.27-0.31-2.87zm28.9-17v0q0.5 0 1.18 0.17 0.67 0.18 1.22 0.45 0.55 0.28 0.93 0.58 0.37 0.3 0.37 0.55v0q-1 2.1-1.85 4.22-0.85 2.13-1.45 4.08t-0.92 3.65q-0.33 1.7-0.33 2.95v0q0 1.4 0.3 2.32 0.3 0.93 1 1.33v0q-0.6 0.4-1.55 0.65t-1.7 0.25v0q-2.7 0-2.7-3.7v0q0-2.85 1.9-7.8v0q-1 2.3-2.3 4.32-1.3 2.03-2.65 3.58t-2.72 2.52q-1.38 0.98-2.53 1.18v0q-1.85-0.1-3-1.78-1.15-1.67-1.15-4.27v0q0-2.8 1.2-5.9t3.08-5.75q1.87-2.65 4.07-4.43 2.2-1.77 4.25-1.87v0q0.5 0.15 1.13 0.6 0.62 0.45 1.2 1.05 0.57 0.6 0.97 1.22 0.4 0.63 0.45 1.08v0q-2 0.3-4.12 1.95-2.13 1.65-3.85 3.97-1.73 2.33-2.83 4.98t-1.1 4.95v0q0 0.95 0.7 1.2v0q1.45-0.3 3.35-2.48 1.9-2.17 4.6-6.72v0q0.5-0.9 1.13-2 0.62-1.1 1.27-2.3t1.28-2.42q0.62-1.23 1.17-2.38zm23.5 0.3v0q-0.05 0.95-0.32 1.97-0.28 1.03-0.68 1.86-0.4 0.82-0.85 1.37t-0.85 0.55v0q-0.55-0.05-0.65-0.75v0q0-0.15 0.13-0.48 0.12-0.32 0.27-0.72t0.27-0.8q0.13-0.4 0.13-0.7v0q0-0.7-0.32-1.18-0.33-0.47-0.88-0.47v0q-2 0-3.05 2.5t-1.05 7.35v0q0 0.5 0.05 0.6v0q1.05-0.05 1.87-0.08 0.83-0.02 1.63-0.02v0q0.05 0.1 0.05 0.4v0q0 0.45-0.2 0.65v0q-1.15 0.25-1.82 0.42-0.68 0.18-1.03 0.33t-0.42 0.32q-0.08 0.18-0.08 0.48v0q0 0.4 0.03 0.8 0.02 0.4 0.02 1v0q0 4.2-2.27 6.75-2.28 2.55-6.33 2.95v0q-0.7-0.05-1.45-0.4t-1.42-0.9q-0.68-0.55-1.18-1.22-0.5-0.68-0.7-1.38v0q0-1.9 0.8-3.63 0.8-1.72 2.17-3.05 1.38-1.32 3.25-2.15 1.88-0.82 4.08-0.97v0q0-1.25-0.25-2.45t-0.52-2.33q-0.28-1.12-0.53-2.2-0.25-1.07-0.25-2.12v0q0-1.35 0.55-2.68 0.55-1.32 1.45-2.45 0.9-1.12 2.1-1.92t2.5-1.1v0q0.55 0.15 1.48 0.87 0.92 0.73 1.82 1.63t1.6 1.82q0.7 0.93 0.85 1.53zm-16.5 22.8v0q1.2-0.5 2.28-1.45 1.07-0.95 1.87-2.15t1.28-2.55q0.47-1.35 0.47-2.65v0q-1 0.15-2.2 0.92-1.2 0.78-2.25 1.85-1.05 1.08-1.75 2.23t-0.7 2v0q0 1.1 1 1.8zm33.8-22.8v0q-0.05 0.95-0.33 1.97-0.27 1.03-0.67 1.86-0.4 0.82-0.85 1.37t-0.85 0.55v0q-0.55-0.05-0.65-0.75v0q0-0.15 0.12-0.48 0.13-0.32 0.28-0.72t0.27-0.8q0.13-0.4 0.13-0.7v0q0-0.7-0.33-1.18-0.32-0.47-0.87-0.47v0q-2 0-3.05 2.5t-1.05 7.35v0q0 0.5 0.05 0.6v0q1.05-0.05 1.87-0.08 0.83-0.02 1.63-0.02v0q0.05 0.1 0.05 0.4v0q0 0.45-0.2 0.65v0q-1.15 0.25-1.83 0.42-0.67 0.18-1.02 0.33t-0.43 0.32q-0.07 0.18-0.07 0.48v0q0 0.4 0.02 0.8 0.03 0.4 0.03 1v0q0 4.2-2.28 6.75-2.27 2.55-6.32 2.95v0q-0.7-0.05-1.45-0.4t-1.43-0.9q-0.67-0.55-1.17-1.22-0.5-0.68-0.7-1.38v0q0-1.9 0.8-3.63 0.8-1.72 2.17-3.05 1.38-1.32 3.25-2.15 1.88-0.82 4.08-0.97v0q0-1.25-0.25-2.45t-0.53-2.33q-0.27-1.12-0.52-2.2-0.25-1.07-0.25-2.12v0q0-1.35 0.55-2.68 0.55-1.32 1.45-2.45 0.9-1.12 2.1-1.92t2.5-1.1v0q0.55 0.15 1.47 0.87 0.93 0.73 1.83 1.63t1.6 1.82q0.7 0.93 0.85 1.53zm-16.5 22.8v0q1.2-0.5 2.27-1.45 1.08-0.95 1.88-2.15t1.27-2.55q0.48-1.35 0.48-2.65v0q-1 0.15-2.2 0.92-1.2 0.78-2.25 1.85-1.05 1.08-1.75 2.23t-0.7 2v0q0 1.1 1 1.8z" fill="#97978d" stroke-linecap="round" style="font-file-url:none;is-custom-font:none"/>
</g><g fill="#ccc">
		<g transform="matrix(6.8655 0 0 6.8655 249.35 -236.88)">
<path transform="translate(-86.212 -49.975)" d="m94.3 48.2-12.5-12.5c-1-1-2.6-1-3.5 0-1 1-1 2.6 0 3.5l1.7 1.8 9 9-10.8 10.8c-1 1-1 2.6 0 3.5 0.5 0.5 1.1 0.7 1.8 0.7s1.3-0.2 1.8-0.7l12.5-12.5c0.9-1 0.9-2.6 0-3.6z" fill="#ccc" stroke-linecap="round" style="font-file-url:none;is-custom-font:none"/>
</g>
		<g transform="matrix(6.8655 0 0 6.8655 -248.15 -236.88)">
<path transform="translate(-13.75 -49.975)" d="m21.8 39.3c1-1 1-2.6 0-3.5-1-1-2.6-1-3.5 0l-12.6 12.4c-1 1-1 2.6 0 3.5l12.5 12.5c0.5 0.5 1.1 0.7 1.8 0.7s1.3-0.2 1.8-0.7c1-1 1-2.6 0-3.5l-1.8-1.7-9-9 9-9 1.8-1.7z" fill="#ccc" stroke-linecap="round" style="font-file-url:none;is-custom-font:none"/>
</g>
		<g transform="matrix(6.8655 0 0 6.8655 .3845 -236.37)">
<path transform="translate(-49.95 -50.05)" d="m72.4 29.3c0-0.1 0-0.2-0.1-0.2 0-0.1-0.1-0.2-0.1-0.2 0-0.1-0.1-0.1-0.1-0.2-0.2-0.3-0.4-0.5-0.7-0.7-0.1 0-0.1-0.1-0.2-0.1s-0.2-0.1-0.2-0.1c-0.1 0-0.2-0.1-0.3-0.1s-0.1 0-0.2-0.1h-0.5-30c-0.7 0-1.3 0.3-1.8 0.7l-10 10c-0.1 0.1-0.2 0.2-0.3 0.4 0 0.1-0.1 0.1-0.1 0.2s-0.1 0.2-0.1 0.2c0 0.1-0.1 0.2-0.1 0.2 0 0.1 0 0.1-0.1 0.2v0.5 30c0 1.4 1.1 2.5 2.5 2.5h30 0.5c0.1 0 0.1 0 0.2-0.1 0.1 0 0.2 0 0.2-0.1 0.1 0 0.2-0.1 0.2-0.1 0.1 0 0.1-0.1 0.2-0.1 0.1-0.1 0.3-0.2 0.4-0.3l10-10c0.5-0.5 0.7-1.1 0.7-1.8v-30-0.5-0.2zm-14.9 38.2h-25v-25h25v25zm1.5-30h-23l5-5h23l-5 5zm8.5 21.5-5 5v-23l5-5v23z" fill="#ccc" stroke-linecap="round" style="font-file-url:none;is-custom-font:none"/>
</g>
		</g><g id="tight-bounds" transform="matrix(3.1619 0 0 3.1619 .4646 .3108)">
<rect x="-158.15" y="-123.6" width="316.3" height="247.2" rx="0" ry="0" fill="none" style="font-file-url:none;is-custom-font:none"/>
</g>
</g>
</g>
<g transform="translate(469.5 642.46)" filter="url(#SVGID_168)">
<filter id="SVGID_168" x="-.034226" y="-.21132" width="1.0905" height="1.5603">
	<feGaussianBlur in="SourceAlpha" stdDeviation="5"/>
	<feOffset dx="10" dy="10" result="oBlur"/>
	<feFlood flood-color="rgb(0,0,0)"/>
	<feComposite in2="oBlur" operator="in"/>
	<feMerge>
		<feMergeNode/>
		<feMergeNode in="SourceGraphic"/>
	</feMerge>
</filter><g fill="#fff" font-family="Oleo Script" font-size="90" font-weight="bold" stroke="#595959" stroke-width="7">
		
<path d="m-212.44-5.57q-2.79 0-4.77 4.95t-1.98 9.99q0 11.07 6.39 11.07 4.05 0 9.17-3.87l2.88 3.96q-3.77 4.14-9.04 6.48-5.26 2.34-10.48 2.34-7.02 0-11.39-4.27-4.36-4.28-4.36-12.92 0-10.44 6.43-17.1t16.88-6.66q6.75 0 10.62 2.75 3.87 2.74 3.87 6.93 0 4.18-2.53 7.24-2.96 0-6.43-1.12-3.46-1.13-5.53-2.84l1.35-6.75q-0.55-0.18-1.08-0.18z" style="font-file-url:none;is-custom-font:none;white-space:pre" xml:space="preserve"/><path d="m-180.95 29.35q-7.02 0-11.07-4.45-4.04-4.46-4.04-12.56 0-9.9 5.84-16.78 5.85-6.89 15.39-6.89l4.05 0.36q2.16-0.63 4.05-0.63 4.5 0 6.44 3.06 1.93 3.06 2.2 8.73 3.78-0.18 7.2-1.17l1.26-0.36q0.63 0.63 0.9 3.78l0.09 0.99q-4.05 2.07-9.9 3.24-1.98 9.54-7.83 16.11t-14.58 6.57zm1.8-17.37q0 8.37 4.23 8.37 2.97 0 6.08-3.78 3.1-3.78 4.28-9.18-9.19 0-9.19-8.82 0-1.53 0.27-3.15-0.9 0-1.35 0.27-1.53 1.62-2.92 6.53-1.4 4.9-1.4 9.76z" style="font-file-url:none;is-custom-font:none;white-space:pre" xml:space="preserve"/><path d="m-150.53 28.81h-2.25q0-6.39 2.48-17.86 2.47-11.48 2.47-12.74t-0.81-2.79-1.62-2.34l-0.8-0.81 0.17-1.35q5.22-1.71 18.45-1.71 0.99 2.07 1.35 4.41 7.83-5.13 13.23-5.13 2.88 0 4.91 1.53 2.02 1.53 2.83 4.05 7.47-5.58 13.68-5.58 4.05 0 6.35 2.48 2.29 2.47 2.29 5.94 0 3.46-1.98 11.2t-1.98 9.95q0 2.2 0.72 2.2l4.68-1.17 1.62 4.5q-2.7 2.16-7.42 3.96-4.73 1.8-8.51 1.8-7.74 0-7.74-7.83 0-3.33 1.89-11.34t1.89-9.76q0-1.76-1.35-1.76-1.89 0-4.05 1.53-0.27 1.35-1.44 6.48-2.52 11.52-2.52 20.43-4.14 1.53-16.11 1.53-0.27-0.99-0.27-4.68t1.98-13.05 1.98-10.8-1.26-1.44q-1.53 0-3.96 1.44-0.27 1.53-1.71 7.83-3.06 13.23-3.06 19.26-4.23 1.62-14.13 1.62z" style="font-file-url:none;is-custom-font:none;white-space:pre" xml:space="preserve"/><path d="m-83.21 48.43q-0.72-1.17-0.72-4.95t3.47-20.52q3.46-16.74 3.46-20.97t-0.81-6.43q-0.81-2.21-1.62-2.84l-0.8-0.63 0.17-1.35q5.4-1.71 18.27-1.71 0.72 1.35 1.17 3.51 5.76-4.14 10.89-4.14t8.42 3.92q3.28 3.91 3.28 13.27t-4.9 16.56q-4.91 7.2-14.36 7.2-4.14 0-8.1-1.62-2.07 10.17-2.07 17.91-6.48 2.34-15.75 2.79zm21.78-26.64q2.43 0 4.14-3.6 3.06-6.3 3.06-15.3 0-5.31-2.61-5.31-1.35 0-3.6 0.99-0.54 7.56-3.6 22.77 1.53 0.45 2.61 0.45z" style="font-file-url:none;is-custom-font:none;white-space:pre" xml:space="preserve"/><path d="m-18.23 29.35q-7.02 0-11.07-4.45-4.05-4.46-4.05-12.56 0-9.9 5.85-16.78 5.85-6.89 15.39-6.89l4.05 0.36q2.16-0.63 4.05-0.63 4.5 0 6.44 3.06 1.93 3.06 2.2 8.73 3.78-0.18 7.2-1.17l1.26-0.36q0.63 0.63 0.9 3.78l0.09 0.99q-4.05 2.07-9.9 3.24-1.98 9.54-7.83 16.11t-14.58 6.57zm1.8-17.37q0 8.37 4.23 8.37 2.97 0 6.08-3.78 3.1-3.78 4.27-9.18-9.18 0-9.18-8.82 0-1.53 0.27-3.15-0.9 0-1.35 0.27-1.53 1.62-2.92 6.53-1.4 4.9-1.4 9.76z" style="font-file-url:none;is-custom-font:none;white-space:pre" xml:space="preserve"/><path d="m11.47 28.81h-1.52q0-5.58 2.56-16.92t2.56-13.05-0.8-3.33q-0.81-1.62-1.63-2.43l-0.8-0.81 0.18-1.35q5.3-1.71 18.53-1.71 0.9 2.07 1.26 4.32 8.2-5.04 13.78-5.04 3.78 0 5.93 2.48 2.17 2.47 2.17 5.94 0 3.46-1.99 11.11-1.97 7.65-1.97 9.95 0 2.29 0.62 2.29l4.78-1.26 1.61 4.5q-2.87 2.16-7.51 4.01-4.64 1.84-8.5 1.84-7.66 0-7.66-7.92 0-3.42 1.89-11.16t1.89-9.67q0-1.94-1.26-1.94-1.61 0-4.32 1.8-0.36 1.62-1.79 7.83-2.89 13.05-2.89 18.81-4.41 1.71-15.12 1.71z" style="font-file-url:none;is-custom-font:none;white-space:pre" xml:space="preserve"/><path d="m60.25 11.98q0-11.16 6.8-17.37 6.79-6.21 16.78-6.21 6.94 0 11.12 3.02 4.18 3.01 4.18 8.05 0 3.69-2.25 6.57t-5.49 4.41q-6.84 3.06-11.87 3.69l-2.25 0.27q0.98 5.94 5.93 5.94 2.16 0 4.77-0.94 2.61-0.95 4.14-1.94l1.53-0.9 2.89 3.87t-1 0.99q-0.53 0.54-2.56 2.12-2.03 1.57-4.23 2.74-2.21 1.17-5.63 2.12-3.42 0.94-6.83 0.94-7.65 0-11.84-4.45-4.19-4.46-4.19-12.92zm16.66-3.51q2.61-0.36 5.22-4.27 2.6-3.92 2.6-6.57 0-2.66-1.53-2.66-2.25 0-4.14 3.51t-2.15 9.99z" style="font-file-url:none;is-custom-font:none;white-space:pre" xml:space="preserve"/><path d="m104.18 28.81h-1.53q0-5.58 2.56-16.92 2.57-11.34 2.57-13.05t-0.81-3.33-1.63-2.43l-0.8-0.81 0.18-1.35q5.31-1.71 18.53-1.71 0.91 2.07 1.27 4.32 8.19-5.04 13.76-5.04 3.78 0 5.94 2.48 2.16 2.47 2.16 5.94 0 3.46-1.97 11.11-1.98 7.65-1.98 9.95 0 2.29 0.63 2.29l4.76-1.26 1.62 4.5q-2.88 2.16-7.51 4.01-4.63 1.84-8.5 1.84-7.65 0-7.65-7.92 0-3.42 1.89-11.16t1.89-9.67q0-1.94-1.26-1.94-1.62 0-4.32 1.8-0.36 1.62-1.8 7.83-2.88 13.05-2.88 18.81-4.41 1.71-15.12 1.71z" style="font-file-url:none;is-custom-font:none;white-space:pre" xml:space="preserve"/><path d="m184.63-3.59-7.73-0.63q-3.6 16.11-3.92 18.72t-0.32 4.28q0 1.66 1.09 1.66 1.25 0 4.76-1.62l2.17 4.32q-2.88 2.61-7.3 4.41-4.41 1.8-8.5 1.8-4.1 0-6.53-2.11-2.42-2.12-2.42-5.99t2.25-12.42 2.97-12.69q-2.16 0.18-6.4 0.63-0.35-1.89-0.35-3.55 0-1.67 0.44-3.74h7.2q0.09-1.17 0.09-7.83l-0.17-3.69q8.73-2.88 16.64-2.88 0.64 1.44 0.64 5 0 3.55-1.18 9.4h8.1q0 3.69-1.53 6.93z" style="font-file-url:none;is-custom-font:none;white-space:pre" xml:space="preserve"/><path d="m216.5 16.12q0 5.58-5.18 9.41-5.17 3.82-12.1 3.82-6.94 0-11.39-2.34t-4.45-4.45q0-2.12 2.74-5.4 2.75-3.29 5.63-3.83 4.13 2.25 7.47 9.99 2.6 0 2.6-1.71 0-1.26-0.72-2.34t-1.07-1.71q-0.37-0.63-1.27-1.75-0.89-1.13-1.35-1.67-2.25-2.7-4.04-4.95-4.33-5.4-4.33-9.49 0-4.1 2.62-6.71 4.5-4.59 13.22-4.59 5.5 0 8.74 2.12 3.23 2.11 3.23 6.3 0 4.18-4.94 9.58 4.59 5.31 4.59 9.72zm-6.03-16.51q1.07-1.67 1.07-3.02t-1.16-2.07q-1.18-0.72-2.79-0.72-1.62 0-2.48 0.77-0.86 0.76-0.86 2.02t3.88 5.58q1.25-0.9 2.34-2.56z" style="font-file-url:none;is-custom-font:none;white-space:pre" xml:space="preserve"/></g></g>
</svg>
